<svg xmlns="http://www.w3.org/2000/svg"><path d="M14.341 3.579c-.347-.473-.831-1.027-1.362-1.558S11.894 1.006 11.421.659C10.615.068 10.224 0 10 0H2.25A1.25 1.25 0 0 0 1 1.25v13.5A1.25 1.25 0 0 0 2.25 16h11.5A1.25 1.25 0 0 0 15 14.75V5c0-.224-.068-.615-.659-1.421h0 0zm-2.07-.85A13.66 13.66 0 0 1 13.405 4h-2.406V1.595c.359.278.792.654 1.271 1.134h0 0zM14 14.75c0 .136-.114.25-.25.25H2.25c-.135 0-.25-.114-.25-.25V1.25c0-.135.115-.25.25-.25H10v3.5a.5.5 0 0 0 .5.5H14v9.75z"/><path d="M4 1h2v1H4V1z"/><path d="M6 2h2v1H6V2z"/><path d="M4 3h2v1H4V3z"/><path d="M6 4h2v1H6V4z"/><path d="M4 5h2v1H4V5z"/><path d="M6 6h2v1H6V6z"/><path d="M4 7h2v1H4V7z"/><path d="M6 8h2v1H6V8z"/><path d="M4 13.25c0 .412.338.75.75.75h2.5c.412 0 .75-.338.75-.75v-2.5c0-.412-.338-.75-.75-.75H6V9H4v4.25zM7 12v1H5v-1h2z"/></svg>
