<svg xmlns="http://www.w3.org/2000/svg"><path d="M10.404 5.11L9.389 4.096 4.314 9.17a2.15 2.15 0 0 0 0 3.044c.841.84 2.204.841 3.045 0l6.09-6.089c1.402-1.401 1.402-3.673 0-5.074a3.59 3.59 0 0 0-5.075 0L1.98 7.444C.011 9.412.011 12.58 1.966 14.534s5.123 1.954 7.078 0l.014-.013 4.365-4.364-1.015-1.014-4.365 4.363c-1.405 1.405-3.669 1.405-5.061.013s-1.392-3.655 0-5.047l.013-.014L9.39 2.065c.839-.84 2.205-.84 3.045 0s.839 2.205 0 3.044l-6.09 6.089a.72.72 0 0 1-1.015 0c-.28-.28-.28-.735 0-1.014l5.075-5.075z"/></svg>
