<svg xmlns="http://www.w3.org/2000/svg"><path d="M13.156 9.211c-.213-.21-.686-.321-1.406-.331-.487-.005-1.073.038-1.69.124-.276-.159-.561-.333-.784-.542-.601-.561-1.103-1.34-1.415-2.197l.054-.222s.339-1.923.249-2.573a.73.73 0 0 0-.044-.184l-.029-.076c-.092-.212-.273-.437-.556-.425l-.171-.005c-.316 0-.573.161-.64.403-.205.757.007 1.889.39 3.355l-.098.239c-.275.67-.619 1.345-.923 1.94l-.04.077-.873 1.607-.271.144-.594.323c-.926.553-1.539 1.18-1.641 1.678-.032.159-.008.362.156.456l.263.132a.79.79 0 0 0 .357.086c.659 0 1.425-.821 2.48-2.662a24.79 24.79 0 0 1 3.819-.908c.926.521 2.065.883 2.783.883a1.28 1.28 0 0 0 .327-.036c.138-.037.254-.115.325-.222.139-.21.168-.499.13-.795-.011-.088-.081-.196-.157-.271zM3.307 12.72c.12-.329.596-.979 1.3-1.556.044-.036.153-.138.253-.233-.736 1.174-1.229 1.642-1.553 1.788zm4.169-9.6c.212 0 .333.534.343 1.035s-.107.853-.252 1.113c-.12-.385-.179-.992-.179-1.389 0 0-.009-.759.088-.759h0zM6.232 9.961l.458-.839c.383-.724.624-1.29.804-1.755.358.651.804 1.205 1.328 1.649l.207.166c-1.066.211-1.987.467-2.798.779h0zm6.72-.06c-.065.041-.251.064-.37.064-.386 0-.864-.176-1.533-.464l.705-.029c.387 0 .502-.002.88.095s.383.293.318.333h0zm1.389-6.322c-.347-.473-.831-1.027-1.362-1.558S11.894 1.006 11.421.659C10.615.068 10.224 0 10 0H2.25A1.25 1.25 0 0 0 1 1.25v13.5A1.25 1.25 0 0 0 2.25 16h11.5A1.25 1.25 0 0 0 15 14.75V5c0-.224-.068-.615-.659-1.421h0zm-2.07-.85A13.66 13.66 0 0 1 13.405 4h-2.406V1.595c.359.278.792.654 1.271 1.134h0zM14 14.75c0 .136-.114.25-.25.25H2.25c-.135 0-.25-.114-.25-.25V1.25c0-.135.115-.25.25-.25H10v3.5a.5.5 0 0 0 .5.5H14v9.75z"/></svg>
