<svg xmlns="http://www.w3.org/2000/svg"><path d="M9.997 7.436h.691l-.797 3.534-1.036-4.969H7.19L5.985 10.97l-.903-4.969H3.341l1.767 7.998h1.701l1.192-4.73 1.066 4.73h1.568l2.025-7.998H9.997v1.435zm4.344-3.857c-.347-.473-.831-1.027-1.362-1.558S11.894 1.006 11.421.659C10.615.068 10.224 0 10 0H2.25A1.25 1.25 0 0 0 1 1.25v13.5A1.25 1.25 0 0 0 2.25 16h11.5A1.25 1.25 0 0 0 15 14.75V5c0-.224-.068-.615-.659-1.421h0zm-2.07-.85A13.66 13.66 0 0 1 13.405 4h-2.406V1.595c.359.278.792.654 1.271 1.134h0zM14 14.75c0 .136-.114.25-.25.25H2.25c-.135 0-.25-.114-.25-.25V1.25c0-.135.115-.25.25-.25H10v3.5a.5.5 0 0 0 .5.5H14v9.75z"/></svg>
